<mxfile host="app.diagrams.net" modified="2024-05-15T18:23:11.180Z" agent="Mozilla/5.0 (Windows NT 10.0; Win64; x64) AppleWebKit/537.36 (KHTML, like Gecko) Chrome/124.0.0.0 Safari/537.36" version="24.4.1" etag="iJ3qkvoDacR2iNayUXF_" type="github">
  <diagram name="PÃ¡gina-1" id="Xoe0nNUz0pr4NOfCcf0j">
    <mxGraphModel>
      <root>
        <mxCell id="0" />
        <mxCell id="1" parent="0" />
      </root>
    </mxGraphModel>
  </diagram>
</mxfile>
